<?xml version="1.0" encoding="utf-8"?>
<!-- Uploaded to: SVG Repo, www.svgrepo.com, Generator: SVG Repo Mixer Tools -->
<svg fill="#000000" width="800px" height="800px" viewBox="0 0 32 32" version="1.1" xmlns="http://www.w3.org/2000/svg">
<title>microphone</title>
<path d="M4 20q0 3.264 1.6 6.048t4.384 4.352 6.016 1.6 6.016-1.6 4.384-4.352 1.6-6.048q0-0.832-0.576-1.408t-1.408-0.576-1.44 0.576-0.576 1.408q0 3.328-2.336 5.664t-5.664 2.336-5.664-2.336-2.336-5.664q0-0.832-0.576-1.408t-1.408-0.576-1.44 0.576-0.576 1.408zM10.016 20q0 2.496 1.728 4.256t4.256 1.76 4.256-1.76 1.76-4.256v-1.984h-3.008q-0.416 0-0.704-0.288t-0.288-0.704 0.288-0.704 0.704-0.32h3.008v-1.984h-3.008q-0.416 0-0.704-0.288t-0.288-0.704 0.288-0.704 0.704-0.32h3.008v-1.984h-3.008q-0.416 0-0.704-0.288t-0.288-0.704 0.288-0.704 0.704-0.32h3.008v-1.984h-3.008q-0.416 0-0.704-0.288t-0.288-0.704 0.288-0.704 0.704-0.32h2.624q-0.608-1.76-2.144-2.88t-3.488-1.12q-1.92 0-3.456 1.12t-2.176 2.88h2.624q0.416 0 0.704 0.32t0.32 0.704-0.32 0.704-0.704 0.288h-2.976v1.984h2.976q0.416 0 0.704 0.32t0.32 0.704-0.32 0.704-0.704 0.288h-2.976v1.984h2.976q0.416 0 0.704 0.32t0.32 0.704-0.32 0.704-0.704 0.288h-2.976v1.984h2.976q0.416 0 0.704 0.32t0.32 0.704-0.32 0.704-0.704 0.288h-2.976v1.984z"></path>
</svg>